<svg xmlns="http://www.w3.org/2000/svg" width="480.1911088369257" height="208.2504198010053" viewBox="0 0 1146 497">
<g>
<path d="M 0.00 0.00 L 497.00 0.00 L 497.00 497.00 L 0.00 497.00 ZM 158.25 264.56 C162.60,266.52 168.36,265.76 180.59,261.62 C216.36,249.52 263.86,224.42 291.46,203.03 C332.29,171.38 351.95,136.77 340.01,117.53 C335.82,110.77 329.40,106.18 318.76,102.34 C288.38,91.38 233.12,93.27 192.75,106.65 C180.75,110.62 177.02,114.80 182.22,118.44 C185.24,120.55 193.24,120.43 205.50,118.07 C228.77,113.61 259.00,112.83 270.59,116.41 C289.96,122.39 292.07,138.83 276.32,161.05 C273.37,165.21 268.59,170.95 265.68,173.82 L 260.40 179.03 L 244.62 170.90 C222.20,159.35 185.55,143.19 173.45,139.52 C157.99,134.83 147.90,141.62 155.51,151.60 C158.15,155.06 172.14,164.21 180.29,167.81 C182.93,168.97 192.28,174.33 201.09,179.71 C209.89,185.10 218.56,190.40 220.36,191.50 C226.33,195.14 234.00,200.98 234.00,201.88 C234.00,204.01 209.20,219.24 175.05,238.08 C160.63,246.04 154.57,250.88 153.45,255.35 C152.48,259.20 154.37,262.81 158.25,264.56 ZM 247.59 307.90 C286.66,311.12 319.70,305.51 334.06,293.21 C340.43,287.77 343.39,281.01 343.38,272.00 C343.36,260.09 339.42,251.09 326.98,234.50 C319.53,224.56 309.99,215.00 307.54,215.00 C306.12,215.00 277.28,233.52 274.28,236.35 C273.34,237.25 274.18,239.17 278.04,244.96 C284.34,254.40 287.00,261.48 287.00,268.79 C286.99,280.67 278.56,287.34 260.17,290.00 C246.75,291.94 238.04,291.38 213.00,286.97 C197.30,284.20 186.21,283.97 182.60,286.34 C179.23,288.55 179.32,290.25 182.94,293.30 C189.14,298.51 221.02,305.72 247.59,307.90 ZM 757.00 248.44 C757.00,270.68 756.66,289.02 756.25,289.19 C755.84,289.36 748.54,289.27 740.04,289.00 L 724.58 288.50 L 710.50 268.07 C702.75,256.83 695.87,247.46 695.21,247.24 C694.29,246.93 694.00,251.88 694.00,267.92 L 694.00 289.00 L 668.00 289.00 L 668.00 208.00 L 699.63 208.00 L 707.81 220.25 C721.60,240.91 727.63,249.38 728.84,249.78 C729.70,250.07 730.00,244.64 730.00,229.08 L 730.00 208.00 L 757.00 208.00 ZM 28.00 404.00 L 28.00 470.00 L 49.00 470.00 L 49.00 442.00 L 68.57 442.00 C80.50,442.00 88.91,442.42 90.12,443.07 C94.57,445.44 94.12,452.71 89.40,454.86 C87.92,455.54 81.31,456.00 73.18,456.00 C57.35,456.00 56.36,456.38 52.48,464.04 C51.12,466.73 50.00,469.17 50.00,469.46 C50.00,470.51 96.57,469.24 101.71,468.05 C111.70,465.75 117.38,459.99 117.38,452.18 C117.38,445.69 114.28,440.80 108.32,437.91 L 103.71 435.68 L 107.91 433.70 C112.73,431.43 116.47,426.95 117.47,422.24 C118.42,417.75 114.87,410.50 110.65,408.32 C103.16,404.44 98.51,404.02 62.75,404.01 ZM 1146.00 208.00 L 1146.00 353.30 C1146.00,272.82 1145.62,210.02 1145.14,210.55 C1144.32,211.45 1111.10,270.98 1104.56,283.25 L 1101.50 288.99 L 1083.99 289.00 L 1066.48 289.00 L 1050.25 259.75 C1041.33,243.66 1031.33,225.77 1028.03,220.00 C1024.73,214.23 1022.03,209.16 1022.02,208.75 C1022.01,208.34 1028.86,208.01 1037.25,208.02 L 1052.50 208.04 L 1067.65 237.73 C1075.98,254.07 1083.23,267.58 1083.76,267.75 C1084.29,267.93 1091.58,254.56 1099.96,238.04 L 1115.21 208.00 L 1146.00 208.00 ZM 826.04 288.99 C823.12,289.55 809.54,290.00 795.86,290.00 L 771.00 290.00 L 771.00 273.10 L 794.09 272.80 L 817.18 272.50 L 819.59 269.69 C822.24,266.61 822.57,264.34 820.89,260.66 C819.26,257.08 815.91,256.00 806.50,256.00 C788.17,256.00 772.93,249.67 768.00,240.00 C765.60,235.30 765.32,226.21 767.45,222.10 C769.56,218.01 775.09,213.51 780.64,211.37 C785.02,209.68 788.61,209.50 817.00,209.50 L 848.50 209.50 L 848.81 215.46 C848.97,218.74 848.85,222.45 848.54,223.71 L 847.96 226.00 L 823.70 226.00 C803.37,226.00 799.09,226.25 797.22,227.56 C794.32,229.59 794.40,232.50 797.45,235.55 C799.78,237.88 800.51,238.00 811.74,238.00 C830.42,238.00 841.12,241.82 847.38,250.74 C849.88,254.29 850.40,256.12 850.78,262.77 C851.28,271.33 849.66,276.20 844.84,280.69 C841.59,283.73 832.40,287.79 826.04,288.99 ZM 935.50 272.50 L 935.50 288.50 L 860.00 289.02 L 860.00 208.00 L 936.08 208.00 L 935.79 216.25 L 935.50 224.50 L 891.83 225.50 L 888.86 228.83 C886.50,231.47 885.95,232.92 886.19,235.83 L 886.50 239.50 L 904.75 239.77 C914.79,239.92 923.00,240.25 923.00,240.51 C923.00,241.43 916.62,251.55 914.66,253.75 C912.77,255.86 911.86,256.00 899.83,256.00 L 887.00 256.00 L 887.00 261.33 C887.00,265.76 887.43,267.06 889.58,269.08 C892.10,271.45 892.59,271.51 913.83,272.00 ZM 571.00 257.00 L 571.00 289.00 L 545.00 289.00 L 545.00 209.00 L 623.97 209.00 L 619.38 216.43 C616.86,220.52 614.05,224.19 613.15,224.59 C612.24,224.98 603.85,225.49 594.50,225.71 C585.15,225.93 576.52,226.59 575.32,227.19 C572.63,228.52 570.74,232.83 571.17,236.64 L 571.50 239.50 L 589.75 239.77 C599.79,239.92 608.00,240.35 608.00,240.71 C608.00,242.40 599.72,255.08 598.03,255.98 C596.99,256.54 590.48,257.00 583.57,257.00 ZM 1028.00 287.77 C1028.00,289.53 1001.02,289.51 998.82,287.75 C997.96,287.06 993.80,280.33 989.58,272.79 L 981.90 259.07 L 972.73 258.79 L 963.55 258.50 L 960.81 251.50 C959.31,247.65 958.06,243.94 958.04,243.25 C958.01,242.31 961.40,242.00 971.78,242.00 C986.00,242.00 988.28,241.45 991.75,237.16 C993.87,234.54 993.26,229.17 990.55,226.45 C988.12,224.03 987.89,224.00 969.70,224.00 L 951.32 224.00 L 948.41 216.76 C946.81,212.79 945.35,209.19 945.17,208.76 C944.98,208.34 957.68,208.00 973.38,208.00 C999.71,208.00 1002.35,208.16 1007.40,210.05 C1016.06,213.29 1021.72,220.88 1022.72,230.59 C1023.60,239.12 1021.55,244.61 1015.17,250.75 L 1009.73 256.00 L 1015.54 265.75 C1018.74,271.11 1022.85,277.98 1024.68,281.02 C1026.51,284.06 1028.00,287.09 1028.00,287.77 ZM 293.00 468.74 C293.00,469.68 296.02,470.00 304.96,470.00 C316.36,470.00 316.98,469.89 318.09,467.75 C321.51,461.12 345.51,420.00 345.97,420.00 C346.26,420.01 348.72,423.94 351.44,428.75 C354.15,433.56 357.22,438.73 358.25,440.24 C359.28,441.75 359.85,443.44 359.50,443.99 C359.16,444.55 354.76,445.00 349.63,445.00 C341.70,445.00 340.06,445.29 338.19,447.04 C336.26,448.84 332.00,456.01 332.00,457.46 C332.00,457.76 340.21,458.00 350.25,458.01 L 368.50 458.02 L 375.40 470.00 L 386.64 470.00 C392.91,470.00 398.15,469.57 398.49,469.02 C398.98,468.23 387.40,448.31 377.84,433.50 C376.78,431.85 372.40,424.65 368.10,417.50 L 360.30 404.50 L 331.73 404.50 L 312.36 435.99 C301.71,453.31 293.00,468.05 293.00,468.74 ZM 117.00 468.86 C117.00,469.65 120.64,470.00 128.86,470.00 L 140.73 470.00 L 155.02 445.00 C162.88,431.25 169.58,420.01 169.91,420.03 C170.87,420.07 183.80,443.43 183.32,444.25 C183.08,444.66 178.41,445.00 172.95,445.00 L 163.02 445.00 L 159.53 449.75 C157.62,452.36 156.04,455.06 156.02,455.75 C156.01,456.70 160.24,457.00 173.91,457.00 L 191.83 457.00 L 199.10 470.00 L 209.80 469.98 C215.68,469.98 221.08,469.60 221.78,469.16 C222.73,468.55 220.15,463.55 211.87,449.92 C205.72,439.79 197.01,425.42 192.53,418.00 L 184.37 404.50 L 170.26 404.22 L 156.14 403.95 L 145.74 420.72 C127.16,450.67 117.00,467.69 117.00,468.86 ZM 659.00 208.00 L 659.00 290.00 L 647.75 289.88 C641.56,289.82 635.71,289.56 634.75,289.31 C633.12,288.88 633.00,286.09 633.00,248.43 L 633.00 208.00 ZM 230.73 466.63 C233.26,468.97 233.57,469.00 254.46,469.00 C278.61,469.00 284.13,468.01 288.40,462.94 C292.67,457.87 293.12,454.25 292.80,428.00 L 292.50 403.50 L 282.25 403.22 L 272.00 402.93 L 272.00 426.85 C272.00,448.91 271.85,450.96 270.09,453.14 C268.20,455.47 267.93,455.50 246.10,455.80 L 224.01 456.11 L 226.09 460.18 C227.23,462.42 229.32,465.32 230.73,466.63 ZM 407.16 467.40 C410.37,469.65 448.14,469.74 455.61,467.52 C460.94,465.94 465.22,462.22 466.94,457.68 C467.59,455.96 468.00,444.82 468.00,428.90 L 468.00 402.93 L 457.75 403.22 L 447.50 403.50 L 447.23 427.61 C446.98,450.60 446.87,451.81 444.88,453.61 C443.01,455.31 440.55,455.55 420.94,456.00 L 399.09 456.50 L 401.98 461.15 C403.58,463.71 405.91,466.52 407.16,467.40 ZM 53.07 435.53 C51.25,438.54 49.59,441.00 49.38,441.00 C49.17,441.00 49.00,435.83 49.00,429.50 L 49.00 418.00 L 69.57 418.00 C81.83,418.00 90.91,418.42 92.07,419.04 C94.69,420.44 94.53,424.51 91.78,426.44 C90.03,427.67 86.64,428.00 75.93,428.00 C68.43,428.00 60.97,428.46 59.34,429.03 C57.37,429.72 55.28,431.89 53.07,435.53 Z" fill="rgb(23,93,169)"/>
<path d="M 497.00 248.50 L 497.00 0.00 L 821.50 0.00 L 1146.00 0.00 L 1146.00 104.00 L 1146.00 208.00 L 1130.60 208.00 L 1115.21 208.00 L 1099.96 238.04 C1091.58,254.56 1084.29,267.93 1083.76,267.75 C1083.23,267.58 1075.98,254.07 1067.65,237.73 L 1052.50 208.04 L 1037.25 208.02 C1028.86,208.01 1022.01,208.34 1022.02,208.75 C1022.03,209.16 1024.73,214.23 1028.03,220.00 C1031.33,225.77 1041.33,243.66 1050.25,259.75 L 1066.48 289.00 L 1083.99 289.00 L 1101.50 288.99 L 1104.56 283.25 C1111.10,270.98 1144.32,211.45 1145.14,210.55 C1145.62,210.02 1146.00,272.82 1146.00,353.30 L 1146.00 497.00 L 821.50 497.00 L 497.00 497.00 L 497.00 248.50 ZM 659.00 249.00 L 659.00 208.00 L 646.00 208.00 L 633.00 208.00 L 633.00 248.43 C633.00,286.09 633.12,288.88 634.75,289.31 C635.71,289.56 641.56,289.82 647.75,289.88 L 659.00 290.00 L 659.00 249.00 ZM 757.00 248.44 L 757.00 208.00 L 743.50 208.00 L 730.00 208.00 L 730.00 229.08 C730.00,244.64 729.70,250.07 728.84,249.78 C727.63,249.38 721.60,240.91 707.81,220.25 L 699.63 208.00 L 683.82 208.00 L 668.00 208.00 L 668.00 248.50 L 668.00 289.00 L 681.00 289.00 L 694.00 289.00 L 694.00 267.92 C694.00,251.88 694.29,246.93 695.21,247.24 C695.87,247.46 702.75,256.83 710.50,268.07 L 724.58 288.50 L 740.04 289.00 C748.54,289.27 755.84,289.36 756.25,289.19 C756.66,289.02 757.00,270.68 757.00,248.44 ZM 826.04 288.99 C832.40,287.79 841.59,283.73 844.84,280.69 C849.66,276.20 851.28,271.33 850.78,262.77 C850.40,256.12 849.88,254.29 847.38,250.74 C841.12,241.82 830.42,238.00 811.74,238.00 C800.51,238.00 799.78,237.88 797.45,235.55 C794.40,232.50 794.32,229.59 797.22,227.56 C799.09,226.25 803.37,226.00 823.70,226.00 L 847.96 226.00 L 848.54 223.71 C848.85,222.45 848.97,218.74 848.81,215.46 L 848.50 209.50 L 817.00 209.50 C788.61,209.50 785.02,209.68 780.64,211.37 C775.09,213.51 769.56,218.01 767.45,222.10 C765.32,226.21 765.60,235.30 768.00,240.00 C772.93,249.67 788.17,256.00 806.50,256.00 C815.91,256.00 819.26,257.08 820.89,260.66 C822.57,264.34 822.24,266.61 819.59,269.69 L 817.18 272.50 L 794.09 272.80 L 771.00 273.10 L 771.00 281.55 L 771.00 290.00 L 795.86 290.00 C809.54,290.00 823.12,289.55 826.04,288.99 ZM 571.00 273.00 L 571.00 257.00 L 583.57 257.00 C590.48,257.00 596.99,256.54 598.03,255.98 C599.72,255.08 608.00,242.40 608.00,240.71 C608.00,240.35 599.79,239.92 589.75,239.77 L 571.50 239.50 L 571.17 236.64 C570.74,232.83 572.63,228.52 575.32,227.19 C576.52,226.59 585.15,225.93 594.50,225.71 C603.85,225.49 612.24,224.98 613.15,224.59 C614.05,224.19 616.86,220.52 619.38,216.43 L 623.97 209.00 L 584.48 209.00 L 545.00 209.00 L 545.00 249.00 L 545.00 289.00 L 558.00 289.00 L 571.00 289.00 L 571.00 273.00 ZM 935.50 280.50 L 935.50 272.50 L 913.83 272.00 C892.59,271.51 892.10,271.45 889.58,269.08 C887.43,267.06 887.00,265.76 887.00,261.33 L 887.00 256.00 L 899.83 256.00 C911.86,256.00 912.77,255.86 914.66,253.75 C916.62,251.55 923.00,241.43 923.00,240.51 C923.00,240.25 914.79,239.92 904.75,239.77 L 886.50 239.50 L 886.19 235.83 C885.95,232.92 886.50,231.47 888.86,228.83 L 891.83 225.50 L 913.67 225.00 L 935.50 224.50 L 935.79 216.25 L 936.08 208.00 L 898.04 208.00 L 860.00 208.00 L 860.00 248.51 L 860.00 289.02 L 897.75 288.76 L 935.50 288.50 L 935.50 280.50 ZM 1028.00 287.77 C1028.00,287.09 1026.51,284.06 1024.68,281.02 C1022.85,277.98 1018.74,271.11 1015.54,265.75 L 1009.73 256.00 L 1015.17 250.75 C1021.55,244.61 1023.60,239.12 1022.72,230.59 C1021.72,220.88 1016.06,213.29 1007.40,210.05 C1002.35,208.16 999.71,208.00 973.38,208.00 C957.68,208.00 944.98,208.34 945.17,208.76 C945.35,209.19 946.81,212.79 948.41,216.76 L 951.32 224.00 L 969.70 224.00 C987.89,224.00 988.12,224.03 990.55,226.45 C993.26,229.17 993.87,234.54 991.75,237.16 C988.28,241.45 986.00,242.00 971.78,242.00 C961.40,242.00 958.01,242.31 958.04,243.25 C958.06,243.94 959.31,247.65 960.81,251.50 L 963.55 258.50 L 972.73 258.79 L 981.90 259.07 L 989.58 272.79 C993.80,280.33 997.96,287.06 998.82,287.75 C1001.02,289.51 1028.00,289.53 1028.00,287.77 ZM 28.00 437.00 L 28.00 404.00 L 62.75 404.01 C98.51,404.02 103.16,404.44 110.65,408.32 C114.87,410.50 118.42,417.75 117.47,422.24 C116.47,426.95 112.73,431.43 107.91,433.70 L 103.71 435.68 L 108.32 437.91 C114.28,440.80 117.38,445.69 117.38,452.18 C117.38,459.99 111.70,465.75 101.71,468.05 C96.57,469.24 50.00,470.51 50.00,469.46 C50.00,469.17 51.12,466.73 52.48,464.04 C56.36,456.38 57.35,456.00 73.18,456.00 C81.31,456.00 87.92,455.54 89.40,454.86 C94.12,452.71 94.57,445.44 90.12,443.07 C88.91,442.42 80.50,442.00 68.57,442.00 L 49.00 442.00 L 49.00 456.00 L 49.00 470.00 L 38.50 470.00 L 28.00 470.00 L 28.00 437.00 ZM 53.07 435.53 C55.28,431.89 57.37,429.72 59.34,429.03 C60.97,428.46 68.43,428.00 75.93,428.00 C86.64,428.00 90.03,427.67 91.78,426.44 C94.53,424.51 94.69,420.44 92.07,419.04 C90.91,418.42 81.83,418.00 69.57,418.00 L 49.00 418.00 L 49.00 429.50 C49.00,435.83 49.17,441.00 49.38,441.00 C49.59,441.00 51.25,438.54 53.07,435.53 ZM 117.00 468.86 C117.00,467.69 127.16,450.67 145.74,420.72 L 156.14 403.95 L 170.26 404.22 L 184.37 404.50 L 192.53 418.00 C197.01,425.42 205.72,439.79 211.87,449.92 C220.15,463.55 222.73,468.55 221.78,469.16 C221.08,469.60 215.68,469.98 209.80,469.98 L 199.10 470.00 L 195.46 463.50 L 191.83 457.00 L 173.91 457.00 C160.24,457.00 156.01,456.70 156.02,455.75 C156.04,455.06 157.62,452.36 159.53,449.75 L 163.02 445.00 L 172.95 445.00 C178.41,445.00 183.08,444.66 183.32,444.25 C183.80,443.43 170.87,420.07 169.91,420.03 C169.58,420.01 162.88,431.25 155.02,445.00 L 140.73 470.00 L 128.86 470.00 C120.64,470.00 117.00,469.65 117.00,468.86 ZM 293.00 468.74 C293.00,468.05 301.71,453.31 312.36,435.99 L 331.73 404.50 L 346.01 404.50 L 360.30 404.50 L 368.10 417.50 C372.40,424.65 376.78,431.85 377.84,433.50 C387.40,448.31 398.98,468.23 398.49,469.02 C398.15,469.57 392.91,470.00 386.64,470.00 L 375.40 470.00 L 371.95 464.01 L 368.50 458.02 L 350.25 458.01 C340.21,458.00 332.00,457.76 332.00,457.46 C332.00,456.01 336.26,448.84 338.19,447.04 C340.06,445.29 341.70,445.00 349.63,445.00 C354.76,445.00 359.16,444.55 359.50,443.99 C359.85,443.44 359.28,441.75 358.25,440.24 C357.22,438.73 354.15,433.56 351.44,428.75 C348.72,423.94 346.26,420.01 345.97,420.00 C345.51,420.00 321.51,461.12 318.09,467.75 C316.98,469.89 316.36,470.00 304.96,470.00 C296.02,470.00 293.00,469.68 293.00,468.74 ZM 230.73 466.63 C229.32,465.32 227.23,462.42 226.09,460.18 L 224.01 456.11 L 246.10 455.80 C267.93,455.50 268.20,455.47 270.09,453.14 C271.85,450.96 272.00,448.91 272.00,426.85 L 272.00 402.93 L 282.25 403.22 L 292.50 403.50 L 292.80 428.00 C293.12,454.25 292.67,457.87 288.40,462.94 C284.13,468.01 278.61,469.00 254.46,469.00 C233.57,469.00 233.26,468.97 230.73,466.63 ZM 407.16 467.40 C405.91,466.52 403.58,463.71 401.98,461.15 L 399.09 456.50 L 420.94 456.00 C440.55,455.55 443.01,455.31 444.88,453.61 C446.87,451.81 446.98,450.60 447.23,427.61 L 447.50 403.50 L 457.75 403.22 L 468.00 402.93 L 468.00 428.90 C468.00,444.82 467.59,455.96 466.94,457.68 C465.22,462.22 460.94,465.94 455.61,467.52 C448.14,469.74 410.37,469.65 407.16,467.40 ZM 247.59 307.90 C221.02,305.72 189.14,298.51 182.94,293.30 C179.32,290.25 179.23,288.55 182.60,286.34 C186.21,283.97 197.30,284.20 213.00,286.97 C238.04,291.38 246.75,291.94 260.17,290.00 C278.56,287.34 286.99,280.67 287.00,268.79 C287.00,261.48 284.34,254.40 278.04,244.96 C274.18,239.17 273.34,237.25 274.28,236.35 C277.28,233.52 306.12,215.00 307.54,215.00 C309.99,215.00 319.53,224.56 326.98,234.50 C339.42,251.09 343.36,260.09 343.38,272.00 C343.39,281.01 340.43,287.77 334.06,293.21 C319.70,305.51 286.66,311.12 247.59,307.90 ZM 158.25 264.56 C154.37,262.81 152.48,259.20 153.45,255.35 C154.57,250.88 160.63,246.04 175.05,238.08 C209.20,219.24 234.00,204.01 234.00,201.88 C234.00,200.98 226.33,195.14 220.36,191.50 C218.56,190.40 209.89,185.10 201.09,179.71 C192.28,174.33 182.93,168.97 180.29,167.81 C172.14,164.21 158.15,155.06 155.51,151.60 C147.90,141.62 157.99,134.83 173.45,139.52 C185.55,143.19 222.20,159.35 244.62,170.90 L 260.40 179.03 L 265.68 173.82 C268.59,170.95 273.37,165.21 276.32,161.05 C292.07,138.83 289.96,122.39 270.59,116.41 C259.00,112.83 228.77,113.61 205.50,118.07 C193.24,120.43 185.24,120.55 182.22,118.44 C177.02,114.80 180.75,110.62 192.75,106.65 C233.12,93.27 288.38,91.38 318.76,102.34 C329.40,106.18 335.82,110.77 340.01,117.53 C351.95,136.77 332.29,171.38 291.46,203.03 C263.86,224.42 216.36,249.52 180.59,261.62 C168.36,265.76 162.60,266.52 158.25,264.56 Z" fill="rgb(254,254,254)"/>
</g>
</svg>